<svg width="24" height="24" viewBox="0 0 24 24" fill="none" xmlns="http://www.w3.org/2000/svg">
  <path d="M20.317 4.3698C18.7873 3.80914 17.147 3.43738 15.4319 3.28465C15.4007 3.28008 15.3695 3.29502 15.3534 3.32489C15.1424 3.69836 14.9087 4.18678 14.7451 4.56323C12.9004 4.25688 11.0652 4.25688 9.25832 4.56323C9.09465 4.17635 8.85248 3.69836 8.64057 3.32489C8.62449 3.29592 8.59328 3.28098 8.56205 3.28465C6.84697 3.43648 5.20662 3.80825 3.67693 4.3698C3.66368 4.37555 3.65233 4.38511 3.64479 4.39739C0.533392 9.09801 -0.31895 13.6598 0.0991801 18.1578C0.101072 18.1795 0.11337 18.2003 0.130398 18.2133C2.18321 19.7468 4.17171 20.6738 6.12328 21.2748C6.15451 21.2844 6.18761 21.2738 6.20748 21.2491C6.66913 20.6108 7.08064 19.9304 7.43348 19.2078C7.4543 19.1651 7.43442 19.1148 7.39186 19.0982C6.73913 18.8535 6.1176 18.5546 5.51973 18.2133C5.472 18.1862 5.46853 18.1177 5.51454 18.0859C5.63297 17.9973 5.75141 17.904 5.86028 17.8098C5.88282 17.7906 5.91499 17.7858 5.94109 17.7954C9.94697 19.6606 14.2845 19.6606 18.2386 17.7954C18.2647 17.7848 18.2969 17.7896 18.3204 17.8088C18.4293 17.9031 18.5477 17.9973 18.6671 18.0859C18.7131 18.1177 18.7106 18.1862 18.6628 18.2133C18.065 18.5595 17.4434 18.8535 16.7907 19.0972C16.7481 19.1138 16.7292 19.1651 16.75 19.2078C17.1109 19.9294 17.5224 20.6098 17.9761 21.2481C17.9949 21.2738 18.0291 21.2844 18.0604 21.2748C20.0213 20.6738 22.0098 19.7468 24.0626 18.2133C24.0807 18.2003 24.092 18.1805 24.0939 18.1588C24.5892 13.01 23.2134 8.48814 20.3482 4.39829C20.3416 4.38511 20.3303 4.37555 20.317 4.3698ZM8.02002 15.3778C6.8375 15.3778 5.86028 14.2679 5.86028 12.9015C5.86028 11.5351 6.8186 10.4253 8.02002 10.4253C9.23087 10.4253 10.1986 11.5447 10.1797 12.9015C10.1797 14.2679 9.22144 15.3778 8.02002 15.3778ZM15.9947 15.3778C14.8123 15.3778 13.835 14.2679 13.835 12.9015C13.835 11.5351 14.7933 10.4253 15.9947 10.4253C17.2056 10.4253 18.1733 11.5447 18.1544 12.9015C18.1544 14.2679 17.2056 15.3778 15.9947 15.3778Z" fill="#5865F2"/>
</svg>